<svg width="106" height="48" viewBox="0 0 106 48" fill="none" xmlns="http://www.w3.org/2000/svg">
<path d="M0.00806124 19.1054C3.25506 19.1054 7.59696 18.3226 7.59696 12.8482V0.258301H9.59842V12.8482C9.59842 20.6442 3.22009 20.8756 0.00537109 20.8756V19.1054H0.00806124Z" fill="white"/>
<path d="M30.178 11.5865C30.178 16.6386 25.8039 20.8756 20.5904 20.8756C15.3769 20.8756 11.0027 16.6386 11.0027 11.5865C11.0027 6.34342 15.2666 2.10645 20.5904 2.10645C25.9142 2.10645 30.178 6.31652 30.178 11.5865ZM12.8965 11.5865C12.8965 15.6997 16.4206 19.17 20.5877 19.17C24.7574 19.17 28.2788 15.7024 28.2788 11.5865C28.2788 7.28228 24.8381 3.81469 20.5877 3.81469C16.3399 3.81469 12.8965 7.28228 12.8965 11.5865Z" fill="white"/>
<path d="M33.2016 15.4711C33.5809 17.8626 35.6227 19.2454 38.6088 19.2454C41.3285 19.2454 43.9891 17.5613 43.9891 15.6056C43.9891 13.6768 41.9338 12.5361 38.0062 11.8017C35.3995 11.339 34.3046 10.9597 33.2823 10.2253C32.1498 9.41019 31.5068 8.26957 31.5068 7.02134C31.5068 4.16979 34.5305 2.10376 38.6492 2.10376C42.5391 2.10376 45.6005 4.25049 45.6005 7.02134H43.3865C43.1982 5.06561 40.9143 3.73399 38.3828 3.73399C35.9267 3.73399 33.6293 5.14631 33.6293 6.96485C33.6293 8.62198 35.2461 9.41019 38.9854 10.1715C41.9715 10.7687 42.5364 10.9328 43.6716 11.6107C45.2212 12.5603 46.1654 14.0292 46.1654 15.5222C46.1654 18.484 42.7274 20.8729 38.4958 20.8729C34.0382 20.8729 31.1329 18.6993 30.9446 15.4684H33.2016V15.4711Z" fill="white"/>
<path d="M66.398 11.5865C66.398 6.31652 62.1341 2.10645 56.8103 2.10645C51.4865 2.10645 47.2227 6.34342 47.2227 11.5865C47.2227 16.6386 51.5968 20.8756 56.8103 20.8756C61.1872 20.8756 64.9722 17.8922 66.0752 13.9458H64.106C63.073 16.9453 60.1488 19.1673 56.813 19.1673C52.8666 19.1673 49.5012 16.0575 49.1515 12.2375H66.3765C66.3899 12.0223 66.398 11.8044 66.398 11.5865ZM49.1865 10.5454C49.6895 6.73618 52.9096 3.81469 56.8076 3.81469C60.7083 3.81469 63.9284 6.73887 64.4315 10.5454H49.1865Z" fill="white"/>
<path d="M68.1172 11.4708C68.1172 6.92988 71.5337 2.10376 77.8609 2.10376C84.2661 2.10376 87.723 6.92988 87.723 11.4708C87.723 16.0064 84.2661 20.8272 77.8609 20.8272C72.5936 20.8272 70.307 17.4752 70.307 17.4752C70.307 17.4752 70.307 22.0216 70.307 23.5092C69.5026 23.5092 68.9215 23.5092 68.1172 23.5092C68.1172 21.7203 68.1172 11.4708 68.1172 11.4708ZM70.0783 11.4708C70.0783 15.8343 73.4975 19.2534 77.8609 19.2534C82.2243 19.2534 85.6462 15.8343 85.6462 11.4708C85.6462 7.10474 82.2243 3.68556 77.8609 3.68556C73.4975 3.68556 70.0783 7.10743 70.0783 11.4708Z" fill="white"/>
<path d="M91.3975 0.258301C91.3975 1.83203 91.3975 5.99638 91.3975 5.99638C91.3975 5.99638 92.678 2.14409 97.9265 2.14409C102.575 2.14409 105.696 5.31846 105.696 10.0477C105.696 10.0477 105.696 18.8284 105.696 20.5501C104.864 20.5501 104.48 20.5501 103.646 20.5501C103.646 18.8364 103.646 10.4244 103.646 10.4244C103.646 6.96214 101.324 4.21012 97.8915 4.21012C94.4616 4.21012 91.3975 6.95945 91.3975 10.4244C91.3975 10.4244 91.3975 18.8391 91.3975 20.5501C90.6873 20.5501 89.7565 20.5501 89.3584 20.5501C89.3584 18.71 89.3584 2.09836 89.3584 0.258301C90.1897 0.258301 90.5636 0.258301 91.3975 0.258301Z" fill="white"/>
<path d="M6.4967 22.3711V34.9663C6.4967 38.9262 4.47371 40.769 0.129127 40.769H0V44.2312H0.131817C7.10198 44.2312 10.4916 41.1913 10.4916 34.9368V22.3711H6.4967Z" fill="white"/>
<path d="M20.9346 24.8516C15.5704 24.8516 11.2043 29.215 11.2043 34.5818C11.2043 39.9029 15.5812 44.2287 20.9615 44.2287C26.3256 44.2287 30.6917 39.8895 30.6917 34.5549C30.6917 29.2042 26.3149 24.8516 20.9346 24.8516ZM20.9615 40.6669C17.6661 40.6669 14.984 37.9364 14.984 34.5818C14.984 31.1815 17.6526 28.416 20.9346 28.416C24.2327 28.416 26.9121 31.1707 26.9121 34.5549C26.9121 37.9257 24.2435 40.6669 20.9615 40.6669Z" fill="white"/>
<path d="M31.5365 30.1404C31.5365 31.6469 32.3382 33.0753 33.7425 34.0545C34.832 34.8374 35.4426 35.058 39.1927 36.0318C41.9312 36.7474 43.0477 37.5006 43.0477 38.6359C43.0477 39.9271 41.0704 40.7934 39.225 40.7934C37.0244 40.7934 35.5825 39.7926 35.5126 38.4637L35.5072 38.3399H30.8748L30.8855 38.4798C31.1222 41.8102 34.4096 44.2287 39.0716 44.2287C43.8144 44.2287 47.5294 41.5654 47.5294 38.1678C47.5294 35.3539 45.4903 33.651 40.7153 32.4701C37.1347 31.5931 35.9403 31.1169 35.9403 30.0328C35.9403 28.9567 37.5517 28.3138 39.1093 28.3138C40.5566 28.3138 42.2083 29.0509 42.3509 30.2399L42.3644 30.3556H46.8811L46.873 30.2157C46.6794 27.1597 43.3732 24.8516 39.1846 24.8516C35.0391 24.8516 31.5365 27.2754 31.5365 30.1404Z" fill="white"/>
<path d="M57.4829 24.8516C52.1188 24.8516 47.7527 29.215 47.7527 34.5818C47.7527 39.9029 52.1296 44.2287 57.5098 44.2287C61.5504 44.2287 65.2171 41.6972 66.6294 37.931L66.6967 37.7535H62.5835L62.5458 37.8154C61.4482 39.5989 59.5651 40.6669 57.5098 40.6669C54.8735 40.6669 52.5546 38.8807 51.7933 36.3116C52.1538 36.3116 67.0787 36.3116 67.0787 36.3116L67.0975 36.204C67.1917 35.6633 67.2401 35.1091 67.2401 34.5549C67.2401 29.2042 62.8605 24.8516 57.4829 24.8516ZM51.7718 32.879C52.5008 30.2453 54.8197 28.4133 57.4829 28.4133C60.1731 28.4133 62.5054 30.2426 63.2264 32.879C62.8767 32.879 52.1161 32.879 51.7718 32.879Z" fill="white"/>
<path d="M88.9766 22.3711V43.8707H92.7616V33.519C92.7616 30.4738 95.1854 28.8812 97.5796 28.8812C100.025 28.8812 101.938 30.9177 101.938 33.519V43.8707H105.704V33.172C105.704 28.2733 102.363 24.8541 97.577 24.8541C95.8068 24.8541 94.0744 25.5804 92.7589 26.826C92.7589 26.3391 92.7589 22.3711 92.7589 22.3711H88.9766Z" fill="white"/>
<path d="M78.0518 24.8325C71.5363 24.8325 68.0176 29.8281 68.0176 34.5305V47.115H72.1792C72.1792 47.115 72.1792 42.9291 72.1792 42.5148C73.8471 43.6205 75.8647 44.2177 78.0518 44.2177C84.6454 44.2177 88.2044 39.2248 88.2044 34.5305C88.2044 29.8281 84.6454 24.8325 78.0518 24.8325ZM78.0518 40.7098C74.5304 40.7098 71.8752 38.0546 71.8752 34.5305C71.8752 31.0064 74.5304 28.3485 78.0518 28.3485C81.5759 28.3485 84.2338 31.0064 84.2338 34.5305C84.2338 38.0546 81.5759 40.7098 78.0518 40.7098Z" fill="white"/>
</svg>
